:SAMPLES-PER-SECOND 30
:FRAME-RANGE 1-1770
:FULLY-SPECIFIED
:DEGREES
1383
root  21.2985 39.3013 -31.1305 -179.106 -26.6216 177.476
RightUpLeg  -17.6674 -0.913677 -8.96739
RightLeg  43.6324 -9.01654 -9.37883
RightFoot  -5.17575 -0.725052 12.7562
RightToes  6.35937e-011 1.2921e-014 -6.02303e-014
Spine  6.47284 0.646544 3.29872
Spine1  1.80508 2.27702 -7.78935
HEad  -21.3527 64.6657 -31.5053
LeftShoulder1  1.11682 0.725864 -34.1228
LeftArm  23.9539 0.298734 -35.703
LeftForeArm  6.13529 -33.2351 -7.02751
LeftHand  0.383044 -3.24206 -4.92051
RightShoulder  4.12294 4.09548 47.5579
RightArm  36.2508 -8.9982 19.594
RightForeArm  6.03714 10.8745 14.814
RightHand  0.274944 5.00388 2.76257
LeftUpLeg  -8.00471 -4.44145 -12.0429
LeftLeg  17.8485 -9.19806 -2.88012
LeftFoot  -4.62428 -0.581593 10.3561
LeftToes  3.18074e-010 1.39432e-010 -7.71186e-011
1384
root  21.5436 39.4104 -31.8113 -178.539 -35.3964 177.62
RightUpLeg  -16.0259 2.44596 -10.4916
RightLeg  31.1491 -10.7909 -7.19327
RightFoot  -5.41564 -0.768945 14.0747
RightToes  6.35937e-011 1.2921e-014 -6.02303e-014
Spine  6.39696 0.877796 5.18098
Spine1  2.11692 2.89864 -8.62057
HEad  -25.042 66.8179 -34.9694
LeftShoulder1  1.14103 0.63921 -33.7582
LeftArm  25.2153 -3.29271 -38.018
LeftForeArm  8.92813 -34.5546 -7.22059
LeftHand  0.33775 -3.44431 -4.19731
RightShoulder  4.11268 4.09908 47.4149
RightArm  40.8783 -10.9094 18.9076
RightForeArm  3.10623 13.7335 13.0416
RightHand  0.231737 5.0271 2.27438
LeftUpLeg  -7.0674 -9.77298 -11.325
LeftLeg  17.9679 -12.1083 -3.67232
LeftFoot  -4.68927 -0.549745 9.92022
LeftToes  3.18074e-010 1.39432e-010 -7.71186e-011
1385
root  21.8092 39.4245 -32.5147 -177.95 -43.8592 177.512
RightUpLeg  -14.4064 10.6865 -12.6421
RightLeg  20.4963 -10.3477 -4.45647
RightFoot  -5.04744 -0.803239 13.9177
RightToes  6.35937e-011 1.2921e-014 -6.02303e-014
Spine  6.533 1.3743 6.66983
Spine1  2.52252 3.6904 -9.14904
HEad  -28.046 67.6823 -38.0069
LeftShoulder1  1.17833 0.551291 -33.8357
LeftArm  26.6369 -6.32658 -39.9085
LeftForeArm  10.6536 -36.0758 -7.54101
LeftHand  0.303027 -3.27398 -3.82761
RightShoulder  4.04551 4.11473 46.527
RightArm  43.9625 -12.5058 18.7123
RightForeArm  0.905019 15.7611 11.4551
RightHand  0.216559 5.08646 2.08996
LeftUpLeg  -6.87906 -15.0801 -10.3468
LeftLeg  19.2723 -14.514 -5.19553
LeftFoot  -5.27007 -0.48787 9.77427
LeftToes  3.18074e-010 1.39432e-010 -7.71186e-011
1386
root  22.1112 39.3923 -33.2582 -177.352 -52.1091 177.086
RightUpLeg  -12.8732 12.1856 -12.7584
RightLeg  14.0987 -1.43048 -3.48029
RightFoot  -4.88411 -0.930978 15.8171
RightToes  6.35937e-011 1.2921e-014 -6.02303e-014
Spine  7.28937 1.68809 7.77187
Spine1  2.37734 4.26649 -9.75711
HEad  -30.6704 68.3344 -40.4094
LeftShoulder1  1.18933 0.514004 -33.7079
LeftArm  26.7816 -8.33227 -41.7536
LeftForeArm  12.6363 -36.5726 -7.5618
LeftHand  0.316856 -3.65282 -3.81687
RightShoulder  4.36292 4.86383 45.6523
RightArm  45.1419 -13.7598 18.3999
RightForeArm  0.934928 16.4789 10.7855
RightHand  0.1694 5.21879 1.54069
LeftUpLeg  -7.02867 -19.4443 -9.40231
LeftLeg  21.2949 -17.1929 -6.93568
LeftFoot  -6.25478 -0.381515 9.41657
LeftToes  3.18074e-010 1.39432e-010 -7.71186e-011
1387
root  22.4409 39.3299 -34.0213 -176.865 -60.0961 176.953
RightUpLeg  -12.149 7.91017 -11.9132
RightLeg  14.4463 1.52911 -2.84205
RightFoot  -4.86878 -0.954715 16.194
RightToes  6.35937e-011 1.2921e-014 -6.02303e-014
Spine  7.95952 1.82249 9.1163
Spine1  2.37193 4.65167 -10.1693
HEad  -33.6334 68.7178 -43.0392
LeftShoulder1  1.23057 0.413553 -33.7507
LeftArm  26.5744 -9.64959 -42.2723
LeftForeArm  13.6999 -37.4558 -7.75163
LeftHand  0.273635 -3.55964 -3.30274
RightShoulder  4.51156 5.25588 45.0706
RightArm  43.1755 -12.9905 17.8188
RightForeArm  3.87038 15.5253 11.4543
RightHand  0.183081 5.31325 1.66956
LeftUpLeg  -8.02556 -22.75 -7.8778
LeftLeg  23.8143 -19.1833 -8.71932
LeftFoot  -7.55445 -0.230558 8.33695
LeftToes  3.18074e-010 1.39432e-010 -7.71186e-011
1388
root  22.7565 39.3156 -34.7892 -176.944 -67.888 177.712
RightUpLeg  -11.4162 1.4636 -10.5305
RightLeg  16.628 -0.00744689 -2.23219
RightFoot  -6.78995 -0.626074 14.5136
RightToes  6.35937e-011 1.2921e-014 -6.02303e-014
Spine  8.22276 1.85883 10.8381
Spine1  2.48725 4.91153 -10.3591
HEad  -36.2395 68.6612 -45.3922
LeftShoulder1  1.27194 0.316536 -33.8372
LeftArm  26.2744 -10.6713 -42.4449
LeftForeArm  14.1212 -37.2314 -7.66015
LeftHand  0.217341 -3.55428 -2.57395
RightShoulder  4.82872 5.99232 44.4674
RightArm  41.4966 -12.1679 16.9362
RightForeArm  4.67405 14.8973 11.942
RightHand  0.0896847 5.01524 0.695264
LeftUpLeg  -9.76721 -22.5856 -5.93695
LeftLeg  25.7631 -18.2325 -9.03966
LeftFoot  -8.58626 -0.117338 7.02233
LeftToes  3.18074e-010 1.39432e-010 -7.71186e-011
1389
root  23.0843 39.3815 -35.5533 -175.552 -75.3603 177.456
RightUpLeg  -11.2039 -4.46727 -9.43922
RightLeg  17.6488 -1.96558 -2.14311
RightFoot  -7.33378 -0.498326 12.7621
RightToes  6.35937e-011 1.2921e-014 -6.02303e-014
Spine  8.3754 1.96133 11.6088
Spine1  1.80318 4.99992 -10.327
HEad  -36.8585 68.2457 -45.8886
LeftShoulder1  1.27014 0.309122 -33.6898
LeftArm  25.3857 -10.7771 -42.5404
LeftForeArm  14.0633 -36.3262 -7.40456
LeftHand  0.148172 -3.36567 -1.72527
RightShoulder  4.96034 6.36079 43.9466
RightArm  34.632 -10.8609 15.9738
RightForeArm  9.42499 12.392 13.3978
RightHand  0.0317685 4.84868 0.0609731
LeftUpLeg  -11.7992 -18.429 -4.62106
LeftLeg  25.815 -15.9311 -7.9235
LeftFoot  -8.45106 -0.0916649 5.64699
LeftToes  3.18074e-010 1.39432e-010 -7.71186e-011
1390
root  23.3548 39.5364 -36.4067 -172.018 -82.7216 174.962
RightUpLeg  -10.3096 -10.2498 -8.73375
RightLeg  17.2907 -3.86652 -1.39461
RightFoot  -7.78393 -0.408008 11.3928
RightToes  6.35937e-011 1.2921e-014 -6.02303e-014
Spine  8.2108 2.08292 11.304
Spine1  1.49247 4.9369 -9.88517
HEad  -36.6478 67.0561 -45.4321
LeftShoulder1  1.2342 0.402796 -33.73
LeftArm  24.1318 -10.6716 -41.8887
LeftForeArm  13.6859 -35.2754 -7.13458
LeftHand  0.126511 -3.32676 -1.44695
RightShoulder  4.9651 6.54687 43.1304
RightArm  29.3613 -9.63709 15.2657
RightForeArm  11.9574 10.8445 14.045
RightHand  0.0187919 4.58183 -0.071449
LeftUpLeg  -12.7127 -13.3894 -3.95845
LeftLeg  23.5888 -13.0986 -5.8745
LeftFoot  -7.88415 -0.0899687 4.55252
LeftToes  3.18074e-010 1.39432e-010 -7.71186e-011
1391
root  23.5902 39.7093 -37.2543 -66.799 -89.5344 70.8369
RightUpLeg  -9.14411 -14.5075 -7.88994
RightLeg  15.9852 -7.32998 -0.545933
RightFoot  -7.84845 -0.366622 10.2428
RightToes  6.35937e-011 1.2921e-014 -6.02303e-014
Spine  7.85961 2.04894 11.1935
Spine1  1.41248 4.7767 -9.71098
HEad  -34.8725 65.1567 -43.3221
LeftShoulder1  1.23675 0.400378 -33.7807
LeftArm  22.5795 -10.4962 -40.6965
LeftForeArm  13.1658 -34.3553 -6.91568
LeftHand  0.0823617 -3.26766 -0.868199
RightShoulder  5.01831 6.69307 42.9566
RightArm  28.6696 -8.36084 13.9758
RightForeArm  10.8067 11.3666 13.7674
RightHand  0.0535735 4.85989 0.306905
LeftUpLeg  -13.2955 -8.14877 -3.36937
LeftLeg  20.4301 -11.1509 -4.24426
LeftFoot  -6.97021 -0.124967 4.37303
LeftToes  3.18074e-010 1.39432e-010 -7.71186e-011
1392
root  23.7828 39.8637 -38.0847 0.636169 -81.8869 4.47552
RightUpLeg  -8.22445 -16.8027 -7.22233
RightLeg  14.9793 -13.0629 -0.347777
RightFoot  -7.93628 -0.334676 9.41933
RightToes  6.35937e-011 1.2921e-014 -6.02303e-014
Spine  7.68804 1.73251 10.3433
Spine1  0.99822 4.19162 -9.13708
HEad  -31.3676 62.4841 -39.4069
LeftShoulder1  1.25575 0.338679 -33.6068
LeftArm  21.0017 -10.1602 -39.3466
LeftForeArm  12.7527 -33.394 -6.68494
LeftHand  0.0582255 -3.20416 -0.55268
RightShoulder  5.00506 6.76713 42.5068
RightArm  27.7272 -7.65479 13.489
RightForeArm  10.7893 12.1628 13.1439
RightHand  0.0723883 4.96541 0.508005
LeftUpLeg  -14.0861 -3.74807 -3.30855
LeftLeg  17.4459 -11.1379 -3.58283
LeftFoot  -5.45844 -0.176146 4.06715
LeftToes  3.18074e-010 1.39432e-010 -7.71186e-011
1393
root  23.9425 40.0177 -38.8477 1.29236 -74.063 4.82806
RightUpLeg  -7.48663 -18.1887 -7.08318
RightLeg  14.1782 -19.3678 -0.193846
RightFoot  -7.94873 -0.319413 8.93905
RightToes  6.35937e-011 1.2921e-014 -6.02303e-014
Spine  7.4308 1.40509 9.19318
Spine1  0.99483 3.62358 -8.54548
HEad  -27.933 58.5351 -35.2833
LeftShoulder1  1.28551 0.257497 -33.5336
LeftArm  19.5297 -10.3391 -37.7906
LeftForeArm  12.2602 -32.639 -6.51736
LeftHand  0.0423511 -3.42308 -0.313664
RightShoulder  4.83936 6.56865 41.8694
RightArm  29.756 -7.08363 13.4535
RightForeArm  7.22507 14.45 11.661
RightHand  0.0594686 4.90192 0.369484
LeftUpLeg  -14.8555 -1.82505 -3.72622
LeftLeg  14.5381 -11.5021 -3.08498
LeftFoot  -3.53649 -0.177947 2.92111
LeftToes  3.18074e-010 1.39432e-010 -7.71186e-011
1394
root  24.1131 40.1147 -39.5116 2.29504 -66.5889 4.82458
RightUpLeg  -7.06929 -19.248 -7.09611
RightLeg  13.7156 -25.1814 0.273193
RightFoot  -7.96697 -0.320066 9.00504
RightToes  6.35937e-011 1.2921e-014 -6.02303e-014
Spine  7.32196 1.17689 8.80923
Spine1  0.964732 3.26066 -8.26477
HEad  -24.5836 54.0523 -31.4662
LeftShoulder1  1.31646 0.182328 -33.5699
LeftArm  18.297 -11.1894 -36.4583
LeftForeArm  10.665 -31.8509 -6.40761
LeftHand  0.107091 -2.88449 -1.28585
RightShoulder  4.6994 6.39127 41.3522
RightArm  31.9805 -6.59561 13.2681
RightForeArm  2.55359 16.9391 9.80989
RightHand  0.0567236 4.83135 0.345274
LeftUpLeg  -15.9796 -0.748138 -4.06389
LeftLeg  12.0078 -10.5355 -2.581
LeftFoot  -2.43528 -0.0432722 0.744469
LeftToes  3.18074e-010 1.39432e-010 -7.71186e-011
1395
root  24.2482 40.2032 -40.0796 3.10297 -60.1879 4.74207
RightUpLeg  -6.31626 -19.1169 -7.18219
RightLeg  12.6592 -30.4158 1.13231
RightFoot  -7.88724 -0.33337 9.25413
RightToes  6.35937e-011 1.2921e-014 -6.02303e-014
Spine  7.30447 1.25185 8.83476
Spine1  1.12627 3.32958 -8.25772
HEad  -21.7465 49.1998 -28.2352
LeftShoulder1  1.31329 0.180593 -33.4551
LeftArm  17.2819 -12.1075 -35.552
LeftForeArm  9.99587 -31.4114 -6.33468
LeftHand  0.0871627 -2.81676 -1.01923
RightShoulder  4.76952 6.579 41.1733
RightArm  28.7863 -5.7036 12.7197
RightForeArm  3.95052 17.315 9.21509
RightHand  0.0686491 4.97634 0.464979
LeftUpLeg  -17.0599 0.691339 -4.07882
LeftLeg  10.3015 -7.8338 -2.27724
LeftFoot  -2.60196 0.223682 -2.72277
LeftToes  3.18074e-010 1.39432e-010 -7.71186e-011
1396
root  24.3712 40.2634 -40.5443 3.48608 -54.8813 5.01001
RightUpLeg  -6.01643 -19.3392 -7.33668
RightLeg  12.2137 -32.4989 1.53997
RightFoot  -7.91702 -0.328924 9.17986
RightToes  6.35937e-011 1.2921e-014 -6.02303e-014
Spine  7.60902 1.43863 8.83661
Spine1  0.788663 3.53637 -8.40872
HEad  -19.0396 44.9447 -25.1117
LeftShoulder1  1.30788 0.167917 -33.1455
LeftArm  16.0336 -12.5936 -34.3951
LeftForeArm  9.80758 -31.6771 -6.4125
LeftHand  0.108512 -2.86853 -1.3096
RightShoulder  5.04022 7.10762 41.3524
RightArm  26.9117 -4.16764 11.6073
RightForeArm  4.29474 17.6494 8.85889
RightHand  0.0708397 4.93686 0.493772
LeftUpLeg  -18.0637 1.72199 -3.91794
LeftLeg  9.33428 -3.26096 -1.80945
LeftFoot  -3.37498 0.385568 -5.24499
LeftToes  3.18074e-010 1.39432e-010 -7.71186e-011
1397
root  24.498 40.2885 -40.8921 3.59161 -50.4906 5.33746
RightUpLeg  -5.86462 -20.5138 -7.71183
RightLeg  12.5152 -29.6594 1.31287
RightFoot  -8.15865 -0.327039 9.74756
RightToes  6.35937e-011 1.2921e-014 -6.02303e-014
Spine  7.55601 1.55373 8.63815
Spine1  1.02152 3.65057 -8.37387
HEad  -17.5664 41.4092 -23.5475
LeftShoulder1  1.27876 0.20447 -32.699
LeftArm  14.4326 -13.1767 -33.0853
LeftForeArm  10.0269 -31.7958 -6.4301
LeftHand  0.120257 -2.87561 -1.47325
RightShoulder  5.56691 8.20652 41.3829
RightArm  21.805 -2.02693 10.7409
RightForeArm  7.1521 16.9509 9.1449
RightHand  0.072544 4.96644 0.509627
LeftUpLeg  -18.876 2.6994 -3.70895
LeftLeg  9.08073 0.454143 -1.45522
LeftFoot  -3.664 0.415748 -5.70878
LeftToes  3.18074e-010 1.39432e-010 -7.71186e-011
